<svg width="2226" height="2226" viewBox="0 0 2226 2226" fill="none" xmlns="http://www.w3.org/2000/svg">
<path d="M1205.89 650.085C1499.77 650.085 1666.49 844.582 1690.74 1079.52H1698.16C1887.28 1079.52 2040.59 1232.46 2040.59 1421.07C2040.59 1609.72 1887.28 1762.62 1698.16 1762.62H713.618C524.501 1762.62 371.185 1609.72 371.185 1421.07C371.185 1232.46 524.501 1079.52 713.665 1079.52H721.085C745.478 843.051 912.011 650.085 1205.89 650.085V650.085ZM927.5 371C998.821 370.976 1069.07 388.394 1132.11 421.736C1195.16 455.079 1249.1 503.334 1289.22 562.297C1261.53 558.956 1233.65 557.299 1205.75 557.335C923.883 557.335 719.926 716.772 651.105 956.809L647.395 970.258L642.062 992.286L622.863 995.857C549.861 1011.29 482.059 1045.25 425.978 1094.47C369.897 1143.69 327.424 1206.51 302.643 1276.89C252.665 1237.89 216.108 1184.26 198.076 1123.49C180.043 1062.72 181.434 997.828 202.054 937.883C222.674 877.938 261.495 825.925 313.098 789.105C364.701 752.284 426.513 732.493 489.906 732.493H496.491C514.416 631.203 567.436 539.459 646.249 473.357C725.063 407.255 824.636 371.017 927.5 371V371Z" fill="white"/>
</svg>
