<svg width="2226" height="2226" viewBox="0 0 2226 2226" fill="none" xmlns="http://www.w3.org/2000/svg">
<path d="M1112.95 278.25C1406.83 278.25 1573.55 472.793 1597.8 707.683H1605.22C1794.34 707.683 1947.66 860.627 1947.66 1049.23C1947.66 1237.89 1794.34 1390.79 1605.22 1390.79L1525.32 1390.83L1525.13 1391.25H1497.96L1406.55 1548C1402.72 1554.57 1397.62 1560.33 1391.56 1564.94C1385.5 1569.55 1378.59 1572.92 1371.23 1574.86C1363.86 1576.79 1356.19 1577.26 1348.64 1576.23C1341.1 1575.21 1333.83 1572.7 1327.25 1568.87C1320.68 1565.03 1314.92 1559.93 1310.31 1553.87C1305.7 1547.81 1302.33 1540.9 1300.39 1533.54C1298.46 1526.17 1297.99 1518.5 1299.02 1510.96C1300.04 1503.41 1302.55 1496.14 1306.38 1489.56L1364.03 1390.79L1166.52 1390.83L1166.38 1391.25H1126.96L1035.55 1548C1031.72 1554.57 1026.62 1560.33 1020.56 1564.94C1014.5 1569.55 1007.59 1572.92 1000.23 1574.86C992.861 1576.79 985.188 1577.26 977.643 1576.23C970.098 1575.21 962.83 1572.7 956.253 1568.87C949.675 1565.03 943.918 1559.93 939.31 1553.87C934.701 1547.81 931.332 1540.9 929.394 1533.54C927.456 1526.17 926.988 1518.5 928.016 1510.96C929.043 1503.41 931.547 1496.14 935.384 1489.56L993.028 1390.79L807.76 1390.83L807.621 1391.25H756.005L664.554 1548C660.717 1554.57 655.622 1560.33 649.561 1564.94C643.499 1569.55 636.589 1572.92 629.225 1574.86C621.861 1576.79 614.188 1577.26 606.643 1576.23C599.098 1575.21 591.83 1572.7 585.252 1568.87C578.675 1565.03 572.918 1559.93 568.31 1553.87C563.701 1547.81 560.332 1540.9 558.394 1533.54C556.456 1526.17 555.988 1518.5 557.016 1510.96C558.043 1503.41 560.547 1496.14 564.384 1489.56L622.028 1390.79H620.683C431.566 1390.79 278.25 1237.89 278.25 1049.23C278.25 860.627 431.566 707.683 620.683 707.683H628.103C652.496 471.216 819.075 278.25 1113 278.25H1112.95Z" fill="white"/>
<path d="M817.591 1607.82C824.17 1611.66 829.928 1616.75 834.538 1622.81C839.147 1628.87 842.517 1635.78 844.455 1643.15C846.393 1650.51 846.861 1658.19 845.833 1665.73C844.804 1673.28 842.299 1680.55 838.46 1687.12L757.304 1826.25C753.467 1832.82 748.372 1838.58 742.311 1843.19C736.249 1847.8 729.339 1851.17 721.975 1853.11C714.611 1855.04 706.938 1855.51 699.393 1854.48C691.848 1853.46 684.58 1850.95 678.002 1847.12C671.425 1843.28 665.668 1838.18 661.06 1832.12C656.451 1826.06 653.082 1819.15 651.144 1811.79C649.206 1804.42 648.738 1796.75 649.766 1789.21C650.793 1781.66 653.297 1774.39 657.134 1767.81L738.29 1628.69C742.125 1622.11 747.219 1616.35 753.281 1611.74C759.342 1607.13 766.253 1603.76 773.617 1601.83C780.981 1599.89 788.655 1599.42 796.201 1600.45C803.746 1601.48 811.014 1603.98 817.591 1607.82Z" fill="white"/>
<path d="M1209.46 1687.12C1213.3 1680.55 1215.8 1673.28 1216.83 1665.73C1217.86 1658.19 1217.39 1650.51 1215.45 1643.15C1213.51 1635.79 1210.14 1628.88 1205.53 1622.81C1200.93 1616.75 1195.17 1611.66 1188.59 1607.82C1182.01 1603.98 1174.75 1601.48 1167.2 1600.45C1159.66 1599.43 1151.98 1599.89 1144.62 1601.83C1137.25 1603.77 1130.34 1607.14 1124.28 1611.75C1118.22 1616.36 1113.13 1622.11 1109.29 1628.69L1028.13 1767.81C1024.3 1774.39 1021.79 1781.66 1020.77 1789.21C1019.74 1796.75 1020.21 1804.42 1022.14 1811.79C1024.08 1819.15 1027.45 1826.06 1032.06 1832.12C1036.67 1838.18 1042.43 1843.28 1049 1847.12C1055.58 1850.95 1062.85 1853.46 1070.39 1854.48C1077.94 1855.51 1085.61 1855.04 1092.98 1853.11C1100.34 1851.17 1107.25 1847.8 1113.31 1843.19C1119.37 1838.58 1124.47 1832.82 1128.3 1826.25L1209.46 1687.12Z" fill="white"/>
</svg>
