<svg width="2226" height="2226" viewBox="0 0 2226 2226" fill="none" xmlns="http://www.w3.org/2000/svg">
<path d="M904.312 1683.51C922.762 1683.51 940.455 1690.83 953.501 1703.88C966.546 1716.93 973.875 1734.62 973.875 1753.07C973.875 1771.52 966.546 1789.21 953.501 1802.26C940.455 1815.3 922.762 1822.63 904.312 1822.63C885.863 1822.63 868.17 1815.3 855.124 1802.26C842.079 1789.21 834.75 1771.52 834.75 1753.07C834.75 1734.62 842.079 1716.93 855.124 1703.88C868.17 1690.83 885.863 1683.51 904.312 1683.51V1683.51ZM1321.69 1683.51C1340.14 1683.51 1357.83 1690.83 1370.88 1703.88C1383.92 1716.93 1391.25 1734.62 1391.25 1753.07C1391.25 1771.52 1383.92 1789.21 1370.88 1802.26C1357.83 1815.3 1340.14 1822.63 1321.69 1822.63C1303.24 1822.63 1285.54 1815.3 1272.5 1802.26C1259.45 1789.21 1252.12 1771.52 1252.12 1753.07C1252.12 1734.62 1259.45 1716.93 1272.5 1703.88C1285.54 1690.83 1303.24 1683.51 1321.69 1683.51V1683.51ZM695.625 1590.76C714.074 1590.76 731.768 1598.08 744.813 1611.13C757.859 1624.18 765.188 1641.87 765.188 1660.32C765.188 1678.77 757.859 1696.46 744.813 1709.51C731.768 1722.55 714.074 1729.88 695.625 1729.88C677.176 1729.88 659.482 1722.55 646.437 1709.51C633.391 1696.46 626.062 1678.77 626.062 1660.32C626.062 1641.87 633.391 1624.18 646.437 1611.13C659.482 1598.08 677.176 1590.76 695.625 1590.76ZM1113 1590.76C1131.45 1590.76 1149.14 1598.08 1162.19 1611.13C1175.23 1624.18 1182.56 1641.87 1182.56 1660.32C1182.56 1678.77 1175.23 1696.46 1162.19 1709.51C1149.14 1722.55 1131.45 1729.88 1113 1729.88C1094.55 1729.88 1076.86 1722.55 1063.81 1709.51C1050.77 1696.46 1043.44 1678.77 1043.44 1660.32C1043.44 1641.87 1050.77 1624.18 1063.81 1611.13C1076.86 1598.08 1094.55 1590.76 1113 1590.76ZM1530.38 1590.76C1548.82 1590.76 1566.52 1598.08 1579.56 1611.13C1592.61 1624.18 1599.94 1641.87 1599.94 1660.32C1599.94 1678.77 1592.61 1696.46 1579.56 1709.51C1566.52 1722.55 1548.82 1729.88 1530.38 1729.88C1511.93 1729.88 1494.23 1722.55 1481.19 1709.51C1468.14 1696.46 1460.81 1678.77 1460.81 1660.32C1460.81 1641.87 1468.14 1624.18 1481.19 1611.13C1494.23 1598.08 1511.93 1590.76 1530.38 1590.76V1590.76ZM1113 371.093C1406.92 371.093 1573.6 565.589 1597.8 800.525H1605.22C1650.14 800.452 1694.63 809.228 1736.15 826.352C1777.68 843.476 1815.42 868.612 1847.23 900.325C1879.04 932.038 1904.29 969.706 1921.53 1011.18C1938.78 1052.65 1947.69 1097.11 1947.75 1142.03C1947.7 1186.95 1938.8 1231.43 1921.56 1272.91C1904.32 1314.39 1879.07 1352.07 1847.26 1383.8C1815.45 1415.52 1777.71 1440.66 1736.18 1457.79C1694.65 1474.92 1650.15 1483.7 1605.22 1483.63H620.776C575.852 1483.7 531.354 1474.92 489.825 1457.79C448.295 1440.66 410.547 1415.52 378.738 1383.8C346.929 1352.07 321.683 1314.39 304.441 1272.91C287.198 1231.43 278.299 1186.95 278.25 1142.03C278.311 1097.12 287.216 1052.67 304.458 1011.2C321.7 969.734 346.94 932.069 378.738 900.358C410.536 868.646 448.269 843.508 489.782 826.379C531.295 809.249 575.775 800.464 620.683 800.525H628.103C652.589 563.92 819.168 371 1113 371V371.093Z" fill="white"/>
</svg>
