<svg width="2226" height="2226" viewBox="0 0 2226 2226" fill="none" xmlns="http://www.w3.org/2000/svg">
<path d="M1113 159C1128.81 159 1143.98 165.282 1155.16 176.464C1166.34 187.646 1172.62 202.811 1172.62 218.625V337.557C1172.62 353.371 1166.34 368.536 1155.16 379.718C1143.98 390.9 1128.81 397.182 1113 397.182C1097.19 397.182 1082.02 390.9 1070.84 379.718C1059.66 368.536 1053.38 353.371 1053.38 337.557V218.625C1053.38 202.811 1059.66 187.646 1070.84 176.464C1082.02 165.282 1097.19 159 1113 159V159ZM1590 1113C1590 1175.64 1577.66 1237.67 1553.69 1295.54C1529.72 1353.41 1494.58 1406 1450.29 1450.29C1406 1494.58 1353.41 1529.72 1295.54 1553.69C1237.67 1577.66 1175.64 1590 1113 1590C1050.36 1590 988.332 1577.66 930.46 1553.69C872.588 1529.72 820.004 1494.58 775.71 1450.29C731.417 1406 696.281 1353.41 672.309 1295.54C648.338 1237.67 636 1175.64 636 1113C636 986.492 686.255 865.165 775.71 775.71C865.165 686.255 986.492 636 1113 636C1239.51 636 1360.84 686.255 1450.29 775.71C1539.74 865.165 1590 986.492 1590 1113V1113ZM2007.38 1172.62C2023.19 1172.62 2038.35 1166.34 2049.54 1155.16C2060.72 1143.98 2067 1128.81 2067 1113C2067 1097.19 2060.72 1082.02 2049.54 1070.84C2038.35 1059.66 2023.19 1053.38 2007.38 1053.38H1888.36C1872.55 1053.38 1857.38 1059.66 1846.2 1070.84C1835.02 1082.02 1828.74 1097.19 1828.74 1113C1828.74 1128.81 1835.02 1143.98 1846.2 1155.16C1857.38 1166.34 1872.55 1172.62 1888.36 1172.62H2007.3H2007.38ZM1113 1828.82C1128.81 1828.82 1143.98 1835.1 1155.16 1846.28C1166.34 1857.46 1172.62 1872.63 1172.62 1888.44V2007.38C1172.62 2023.19 1166.34 2038.35 1155.16 2049.54C1143.98 2060.72 1128.81 2067 1113 2067C1097.19 2067 1082.02 2060.72 1070.84 2049.54C1059.66 2038.35 1053.38 2023.19 1053.38 2007.38V1888.44C1053.38 1872.63 1059.66 1857.46 1070.84 1846.28C1082.02 1835.1 1097.19 1828.82 1113 1828.82V1828.82ZM337.875 1172.62C353.689 1172.62 368.854 1166.34 380.036 1155.16C391.218 1143.98 397.5 1128.81 397.5 1113C397.5 1097.19 391.218 1082.02 380.036 1070.84C368.854 1059.66 353.689 1053.38 337.875 1053.38H218.625C202.811 1053.38 187.646 1059.66 176.464 1070.84C165.282 1082.02 159 1097.19 159 1113C159 1128.81 165.282 1143.98 176.464 1155.16C187.646 1166.34 202.811 1172.62 218.625 1172.62H337.875ZM414.91 414.91C426.09 403.745 441.245 397.473 457.046 397.473C472.846 397.473 488.001 403.745 499.18 414.91L618.43 534.16C628.963 545.463 634.696 560.413 634.424 575.86C634.151 591.307 627.894 606.045 616.969 616.969C606.045 627.894 591.307 634.151 575.86 634.424C560.413 634.696 545.463 628.963 534.16 618.43L414.91 499.18C403.745 488.001 397.473 472.846 397.473 457.046C397.473 441.245 403.745 426.09 414.91 414.91V414.91ZM499.18 1810.93C487.878 1821.46 472.928 1827.2 457.481 1826.92C442.034 1826.65 427.296 1820.39 416.372 1809.47C405.447 1798.55 399.19 1783.81 398.917 1768.36C398.645 1752.91 404.378 1737.96 414.91 1726.66L534.16 1607.41C545.463 1596.88 560.413 1591.14 575.86 1591.42C591.307 1591.69 606.045 1597.95 616.969 1608.87C627.894 1619.8 634.151 1634.53 634.424 1649.98C634.696 1665.43 628.963 1680.38 618.43 1691.68L499.18 1810.93ZM1810.93 414.91C1799.75 403.745 1784.6 397.473 1768.8 397.473C1752.99 397.473 1737.84 403.745 1726.66 414.91L1607.41 534.16C1596.88 545.463 1591.14 560.413 1591.42 575.86C1591.69 591.307 1597.95 606.045 1608.87 616.969C1619.8 627.894 1634.53 634.151 1649.98 634.424C1665.43 634.696 1680.38 628.963 1691.68 618.43L1810.93 499.18C1822.1 488.001 1828.37 472.846 1828.37 457.046C1828.37 441.245 1822.1 426.09 1810.93 414.91V414.91ZM1726.74 1811.01C1732.2 1816.87 1738.78 1821.57 1746.1 1824.83C1753.41 1828.08 1761.3 1829.84 1769.31 1829.98C1777.32 1830.12 1785.27 1828.65 1792.69 1825.65C1800.12 1822.65 1806.86 1818.19 1812.52 1812.52C1818.19 1806.86 1822.65 1800.12 1825.65 1792.69C1828.65 1785.27 1830.12 1777.32 1829.98 1769.31C1829.84 1761.3 1828.08 1753.41 1824.83 1746.1C1821.57 1738.78 1816.87 1732.2 1811.01 1726.74L1691.76 1607.49C1686.3 1601.63 1679.72 1596.93 1672.4 1593.67C1665.09 1590.42 1657.2 1588.66 1649.19 1588.52C1641.18 1588.38 1633.23 1589.85 1625.81 1592.85C1618.38 1595.85 1611.64 1600.31 1605.98 1605.98C1600.31 1611.64 1595.85 1618.38 1592.85 1625.81C1589.85 1633.23 1588.38 1641.18 1588.52 1649.19C1588.66 1657.2 1590.42 1665.09 1593.67 1672.4C1596.93 1679.72 1601.63 1686.3 1607.49 1691.76L1726.74 1811.01Z" fill="white"/>
</svg>
